<svg id="Layer_1" data-name="Layer 1" xmlns="http://www.w3.org/2000/svg" viewBox="0 0 212.6 155.91"><defs><style>.cls-1,.cls-5{fill:#fff;}.cls-2,.cls-3,.cls-4{fill:none;}.cls-2,.cls-3,.cls-4,.cls-5{stroke:#231f20;stroke-miterlimit:10;}.cls-3{stroke-dasharray:12.43 12.43;}.cls-4{stroke-dasharray:11.79 11.79;}.cls-6{font-size:12px;font-family:MyriadPro-Regular, Myriad Pro;}.cls-7{letter-spacing:-0.01em;}.cls-8{letter-spacing:-0.01em;}.cls-9{letter-spacing:-0.01em;}.cls-10{fill:#231f20;}</style></defs><rect class="cls-1" x="7.09" y="7.09" width="198.43" height="141.73"/><polyline class="cls-2" points="205.51 142.82 205.51 148.82 199.51 148.82"/><line class="cls-3" x1="187.08" y1="148.82" x2="19.3" y2="148.82"/><polyline class="cls-2" points="13.09 148.82 7.09 148.82 7.09 142.82"/><line class="cls-4" x1="7.09" y1="131.03" x2="7.09" y2="18.98"/><polyline class="cls-2" points="7.09 13.09 7.09 7.09 13.09 7.09"/><line class="cls-3" x1="25.51" y1="7.09" x2="193.3" y2="7.09"/><polyline class="cls-2" points="199.51 7.09 205.51 7.09 205.51 13.09"/><line class="cls-4" x1="205.51" y1="24.88" x2="205.51" y2="136.92"/><rect class="cls-5" x="35.43" y="35.43" width="141.73" height="85.04"/><text class="cls-6" transform="translate(89.99 77.95)">sc<tspan class="cls-7" x="10.13" y="0">r</tspan><tspan x="13.93" y="0">een</tspan></text><text class="cls-6" transform="translate(112.29 25.35)">ma<tspan class="cls-8" x="15.79" y="0">r</tspan><tspan class="cls-9" x="19.62" y="0">g</tspan><tspan x="26.26" y="0">in</tspan></text><line class="cls-2" x1="106.3" y1="29.4" x2="106.3" y2="13.12"/><path class="cls-10" d="M106.3,35.43a29.91,29.91,0,0,1,4.76-8.54l-4.76,1.72-4.76-1.72A29.91,29.91,0,0,1,106.3,35.43Z"/><path class="cls-10" d="M106.3,7.09a29.91,29.91,0,0,0,4.76,8.54l-4.76-1.72-4.76,1.72A29.91,29.91,0,0,0,106.3,7.09Z"/><line class="cls-2" x1="183.2" y1="77.95" x2="199.48" y2="77.95"/><path class="cls-10" d="M177.17,78a30.15,30.15,0,0,1,8.54,4.76L184,78l1.72-4.75A30.12,30.12,0,0,1,177.17,78Z"/><path class="cls-10" d="M205.51,78A30.34,30.34,0,0,0,197,82.71L198.68,78,197,73.2A30.31,30.31,0,0,0,205.51,78Z"/><line class="cls-2" x1="13.12" y1="77.95" x2="29.4" y2="77.95"/><path class="cls-10" d="M7.09,78a30.15,30.15,0,0,1,8.54,4.76L13.91,78l1.72-4.75A30.12,30.12,0,0,1,7.09,78Z"/><path class="cls-10" d="M35.43,78a30.15,30.15,0,0,0-8.54,4.76L28.61,78,26.89,73.2A30.12,30.12,0,0,0,35.43,78Z"/><line class="cls-2" x1="106.3" y1="142.78" x2="106.3" y2="126.51"/><path class="cls-10" d="M106.3,148.82a30.1,30.1,0,0,1,4.76-8.55L106.3,142l-4.76-1.72A30.1,30.1,0,0,1,106.3,148.82Z"/><path class="cls-10" d="M106.3,120.47a30,30,0,0,0,4.76,8.55l-4.76-1.72L101.54,129A30,30,0,0,0,106.3,120.47Z"/><circle class="cls-2" cx="35.43" cy="35.43" r="4.25"/></svg>